<?xml version="1.0" encoding="UTF-8" standalone="no"?>
<!-- Created with Inkscape (http://www.inkscape.org/) -->

<svg
   xmlns:dc="http://purl.org/dc/elements/1.1/"
   xmlns:cc="http://creativecommons.org/ns#"
   xmlns:rdf="http://www.w3.org/1999/02/22-rdf-syntax-ns#"
   xmlns:svg="http://www.w3.org/2000/svg"
   xmlns="http://www.w3.org/2000/svg"
   version="1.1"
   width="612"
   height="612"
   viewBox="0 0 612 612"
   id="Capa_1"
   xml:space="preserve"><metadata
     id="metadata3119"><rdf:RDF><cc:Work
         rdf:about=""><dc:format>image/svg+xml</dc:format><dc:type
           rdf:resource="http://purl.org/dc/dcmitype/StillImage" /><dc:title></dc:title></cc:Work></rdf:RDF></metadata><defs
     id="defs3117" /><rect
     width="566.20966"
     height="387.80197"
     x="27.230648"
     y="151.89595"
     id="rect3121"
     style="fill:#008000;fill-opacity:1;stroke:#000000;stroke-width:1;stroke-miterlimit:4;stroke-opacity:1;stroke-dasharray:1, 1;stroke-dashoffset:0" /><g
     id="g3081"><path
       d="m 575.514,129.861 v -0.658 H 571.869 414.968 285.935 V 93.708 c 0,-10.947 -4.062,-20.154 -11.945,-28.193 C 266.277,57.632 256.744,53.57 245.797,53.57 H 40.138 c -11.28,0 -20.812,4.062 -28.525,11.945 C 4.062,73.221 0,82.76 0,93.708 v 35.496 36.487 352.602 c 0,10.948 3.899,20.649 11.613,28.526 7.543,7.713 17.245,11.612 28.525,11.612 h 531.731 c 11.272,0 20.975,-3.899 28.525,-11.612 C 608.107,538.935 612,529.24 612,518.292 V 374.335 358.08 253.262 169.002 165.69 c 0,-18.958 -16.913,-34.498 -36.486,-35.829 z M 36.819,93.708 c 0,-2.321 0.998,-3.319 3.319,-3.319 h 205.658 c 1.331,0 3.651,1.988 3.651,3.319 v 35.496 H 36.819 V 93.708 z m 538.695,75.294 v 84.253 104.817 16.255 143.965 c 0,1.331 -1.988,3.319 -3.645,3.319 H 40.138 c -2.321,0 -3.319,-0.998 -3.319,-3.319 V 165.69 h 538.694 v 3.312 z"
       id="path3083" /></g><g
     id="g3085" /><g
     id="g3087" /><g
     id="g3089" /><g
     id="g3091" /><g
     id="g3093" /><g
     id="g3095" /><g
     id="g3097" /><g
     id="g3099" /><g
     id="g3101" /><g
     id="g3103" /><g
     id="g3105" /><g
     id="g3107" /><g
     id="g3109" /><g
     id="g3111" /><g
     id="g3113" /></svg>