<?xml version="1.0" encoding="iso-8859-1"?>
<!-- Generator: Adobe Illustrator 16.0.0, SVG Export Plug-In . SVG Version: 6.00 Build 0)  -->
<!DOCTYPE svg PUBLIC "-//W3C//DTD SVG 1.1//EN" "http://www.w3.org/Graphics/SVG/1.1/DTD/svg11.dtd">
<svg version="1.1" id="Capa_1" xmlns="http://www.w3.org/2000/svg" xmlns:xlink="http://www.w3.org/1999/xlink" x="0px" y="0px"
	 width="612px" height="612px" viewBox="0 0 612 612" style="enable-background:new 0 0 612 612;" xml:space="preserve">
<g>
	<g>
		<path d="M600.388,65.515c-7.707-7.883-16.913-11.945-28.193-11.945H40.138c-11.28,0-20.819,4.062-28.533,11.945
			C4.062,73.221,0,82.76,0,93.708v424.584c0,10.948,3.892,20.649,11.605,28.526c7.551,7.713,17.252,11.612,28.533,11.612h532.056
			c11.28,0,20.649-3.899,28.193-11.612C608.101,538.941,612,529.24,612,518.292V93.708C612,82.76,607.938,73.221,600.388,65.515z
			 M575.514,518.292c0,2.321-0.998,3.319-3.319,3.319H40.138c-2.328,0-3.319-0.998-3.319-3.319V93.708
			c0-2.321,0.991-3.319,3.319-3.319h532.056c2.321,0,3.319,0.998,3.319,3.319V518.292L575.514,518.292z"/>
		<path d="M438.187,269.842c17.578,0,31.844-14.592,31.844-32.177c0-16.913-14.266-31.179-31.844-31.179
			c-16.92,0-31.18,14.266-31.18,31.179C407.007,255.25,421.267,269.842,438.187,269.842z"/>
		<polygon points="344.309,380.3 209.968,199.855 88.23,448.964 71.982,485.79 537.363,485.79 411.649,321.926 		"/>
	</g>
</g>
<g>
</g>
<g>
</g>
<g>
</g>
<g>
</g>
<g>
</g>
<g>
</g>
<g>
</g>
<g>
</g>
<g>
</g>
<g>
</g>
<g>
</g>
<g>
</g>
<g>
</g>
<g>
</g>
<g>
</g>
</svg>
