<?xml version="1.0" encoding="UTF-8" standalone="no"?>
<!-- Generator: Adobe Illustrator 16.0.0, SVG Export Plug-In . SVG Version: 6.00 Build 0)  -->

<svg
   xmlns:dc="http://purl.org/dc/elements/1.1/"
   xmlns:cc="http://creativecommons.org/ns#"
   xmlns:rdf="http://www.w3.org/1999/02/22-rdf-syntax-ns#"
   xmlns:svg="http://www.w3.org/2000/svg"
   xmlns="http://www.w3.org/2000/svg"
   xmlns:sodipodi="http://sodipodi.sourceforge.net/DTD/sodipodi-0.dtd"
   xmlns:inkscape="http://www.inkscape.org/namespaces/inkscape"
   version="1.1"
   id="Capa_1"
   x="0px"
   y="0px"
   width="1032.3097"
   height="578.36517"
   viewBox="0 0 1032.3097 578.36517"
   xml:space="preserve"
   inkscape:version="0.48.4 r9939"
   sodipodi:docname="note.svg"><metadata
     id="metadata3119"><rdf:RDF><cc:Work
         rdf:about=""><dc:format>image/svg+xml</dc:format><dc:type
           rdf:resource="http://purl.org/dc/dcmitype/StillImage" /><dc:title></dc:title></cc:Work></rdf:RDF></metadata><defs
     id="defs3117" /><sodipodi:namedview
     pagecolor="#ffffff"
     bordercolor="#666666"
     borderopacity="1"
     objecttolerance="10"
     gridtolerance="10"
     guidetolerance="10"
     inkscape:pageopacity="0"
     inkscape:pageshadow="2"
     inkscape:window-width="1535"
     inkscape:window-height="876"
     id="namedview3115"
     showgrid="false"
     inkscape:zoom="0.75305211"
     inkscape:cx="454.60944"
     inkscape:cy="380.02925"
     inkscape:window-x="65"
     inkscape:window-y="24"
     inkscape:window-maximized="1"
     inkscape:current-layer="Capa_1"
     fit-margin-top="0"
     fit-margin-left="0"
     fit-margin-right="0"
     fit-margin-bottom="0" /><g
     id="g3085"
     transform="translate(-19.000667,-0.13628912)" /><g
     id="g3087"
     transform="translate(-19.000667,-0.13628912)" /><g
     id="g3089"
     transform="translate(-19.000667,-0.13628912)" /><g
     id="g3091"
     transform="translate(-19.000667,-0.13628912)" /><g
     id="g3093"
     transform="translate(-19.000667,-0.13628912)" /><g
     id="g3095"
     transform="translate(-19.000667,-0.13628912)" /><g
     id="g3097"
     transform="translate(-19.000667,-0.13628912)" /><g
     id="g3099"
     transform="translate(-19.000667,-0.13628912)" /><g
     id="g3101"
     transform="translate(-19.000667,-0.13628912)" /><g
     id="g3103"
     transform="translate(-19.000667,-0.13628912)" /><g
     id="g3105"
     transform="translate(-19.000667,-0.13628912)" /><g
     id="g3107"
     transform="translate(-19.000667,-0.13628912)" /><g
     id="g3109"
     transform="translate(-19.000667,-0.13628912)" /><g
     id="g3111"
     transform="translate(-19.000667,-0.13628912)" /><g
     id="g3113"
     transform="translate(-19.000667,-0.13628912)" /><rect
     style="fill:#eaeaea;fill-opacity:1;stroke:#b3b3b3;stroke-width:10.12729263;stroke-linejoin:round;stroke-miterlimit:4;stroke-opacity:1;stroke-dasharray:none;stroke-dashoffset:0"
     id="rect3142"
     width="1026.0187"
     height="574.55615"
     x="4.148735"
     y="2.7291777" /><rect
     style="fill:#b3b3b3;fill-opacity:1;stroke:#012612;stroke-width:3.71100003;stroke-linejoin:round;stroke-miterlimit:4;stroke-opacity:1;stroke-dasharray:none;stroke-dashoffset:0"
     id="rect3142-9"
     width="1019.1552"
     height="77.68676"
     x="8.3148375"
     y="2.374361" /><path
     sodipodi:type="arc"
     style="fill:#b3b3b3;fill-opacity:1;stroke:#012612;stroke-width:15.17199993;stroke-linejoin:round;stroke-miterlimit:4;stroke-opacity:1;stroke-dasharray:none;stroke-dashoffset:0"
     id="path4027"
     sodipodi:cx="24.566692"
     sodipodi:cy="114.91783"
     sodipodi:rx="5.9756823"
     sodipodi:ry="7.967576"
     d="m 30.542375,114.91783 a 5.9756823,7.967576 0 1 1 -11.951365,0 5.9756823,7.967576 0 1 1 11.951365,0 z"
     transform="translate(0,-3.803737e-6)" /><path
     transform="translate(1.9918948,189.8939)"
     sodipodi:type="arc"
     style="fill:#b3b3b3;fill-opacity:1;stroke:#012612;stroke-width:15.17199993;stroke-linejoin:round;stroke-miterlimit:4;stroke-opacity:1;stroke-dasharray:none;stroke-dashoffset:0"
     id="path4027-92"
     sodipodi:cx="24.566692"
     sodipodi:cy="114.91783"
     sodipodi:rx="5.9756823"
     sodipodi:ry="7.967576"
     d="m 30.542375,114.91783 a 5.9756823,7.967576 0 1 1 -11.951365,0 5.9756823,7.967576 0 1 1 11.951365,0 z" /><path
     transform="translate(3.3198242,381.11572)"
     sodipodi:type="arc"
     style="fill:#b3b3b3;fill-opacity:1;stroke:#012612;stroke-width:15.17199993;stroke-linejoin:round;stroke-miterlimit:4;stroke-opacity:1;stroke-dasharray:none;stroke-dashoffset:0"
     id="path4027-2"
     sodipodi:cx="24.566692"
     sodipodi:cy="114.91783"
     sodipodi:rx="5.9756823"
     sodipodi:ry="7.967576"
     d="m 30.542375,114.91783 a 5.9756823,7.967576 0 1 1 -11.951365,0 5.9756823,7.967576 0 1 1 11.951365,0 z" /><g
     transform="matrix(1.4202529,0,0,1,-19.915617,-3.8037369e-6)"
     style="font-size:40px;font-style:italic;font-variant:normal;font-weight:normal;font-stretch:normal;text-align:start;line-height:125%;letter-spacing:0px;word-spacing:0px;writing-mode:lr-tb;text-anchor:start;fill:#000000;fill-opacity:1;stroke:none;font-family:Lobster Two;-inkscape-font-specification:Lobster Two Italic"
     id="text4068"><path
       style="line-height:125%;font-family:Lobster Two;-inkscape-font-specification:Lobster Two Italic"
       d="m 63.029597,30.552729 c -12.139422,-5.879855 -18.956611,19.168366 -12.32,11.16 6.21607,-16.313185 8.449136,-3.583223 4.301701,5.85349 -2.736747,5.212585 -2.949796,19.725688 2.382976,9.49734 1.878441,-8.836944 3.756882,-17.673887 5.635323,-26.51083 z"
       id="path4130"
       inkscape:connector-curvature="0" /><path
       style="line-height:125%;font-family:Lobster Two;-inkscape-font-specification:Lobster Two Italic"
       d="M 84.761472,55.712729 C 90.481271,44.592431 83.295206,37.569874 76.041471,41.23273 c -7.358809,0.185633 -12.329222,-3.833623 -13.287539,8.332167 -4.400645,7.06385 0.772402,17.155658 2.904674,5.227875 0.357957,-12.570597 11.019776,-12.665634 5.331893,0.274675 -2.363055,11.999022 6.592866,0.793321 5.32524,-5.954633 11.020747,-19.589864 -1.591708,23.664106 12.950734,8.191162 5.112381,-12.388897 -3.46386,5.546663 -4.505001,-1.591247 z"
       id="path4132"
       inkscape:connector-curvature="0" /><path
       style="line-height:125%;font-family:Lobster Two;-inkscape-font-specification:Lobster Two Italic"
       d="m 92.735847,38.992729 c -2.226667,10.493333 -4.453333,20.986667 -6.68,31.48 9.233618,-1.691249 2.059361,-15.877435 14.364993,-11.184376 11.86043,-9.305785 -0.005,-20.629216 -3.644993,-20.295624 -1.346667,0 -2.693333,0 -4.04,0 z m 5.96,3.88 c 10.146703,11.336949 -12.058326,21.828579 -3.524474,3.657082 -0.0047,-1.926515 1.566884,-3.577195 3.524474,-3.657082 z"
       id="path4134"
       inkscape:connector-curvature="0" /><path
       style="line-height:125%;font-family:Lobster Two;-inkscape-font-specification:Lobster Two Italic"
       d="m 116.80897,40.272729 c -20.734411,1.787311 -3.80125,36.655499 4.13102,10.789295 2.33054,-5.261869 13.23515,-7.839333 0.38898,-4.469295 0.19852,-2.729999 -1.07133,-6.627467 -4.52,-6.32 z m -2.72,17.4 c -10.53693,-5.451917 6.79308,-23.135119 5.2,-9 -0.50617,3.151619 -1.1818,8.388597 -5.2,9 z"
       id="path4136"
       inkscape:connector-curvature="0" /><path
       style="line-height:125%;font-family:Lobster Two;-inkscape-font-specification:Lobster Two Italic"
       d="m 126.16585,40.472729 c -0.52097,6.257419 -4.91123,15.64983 -3.07822,20 7.89613,0.195795 0.98443,-17.882611 10.76822,-16.22 8.781,-5.451701 -6.81473,-0.02172 -4.81178,-3.78 -0.95941,0 -1.91881,0 -2.87822,0 z"
       id="path4138"
       inkscape:connector-curvature="0" /><path
       style="line-height:125%;font-family:Lobster Two;-inkscape-font-specification:Lobster Two Italic"
       d="m 138.00335,41.872729 c 2.85351,2.872541 -7.22809,23.483428 5.76,17.344998 6.36978,-9.757792 2.71695,-3.537032 -3.01,-2.124998 -1.68514,-5.849133 5.37459,-18.191781 4.80822,-16.62 -0.46675,-3.609038 -4.08443,-10.470031 -5.95822,0 -1.48276,-0.691445 -1.45798,0.456003 -1.6,1.4 z"
       id="path4140"
       inkscape:connector-curvature="0" /><path
       style="line-height:125%;font-family:Lobster Two;-inkscape-font-specification:Lobster Two Italic"
       d="m 159.81647,40.472729 c -8.33934,-6.749612 -23.27022,23.229385 -5.265,19.089999 1.13301,-1.131614 14.65811,2.990232 11.225,-6.249999 -10.96363,12.629855 1.49902,-12.94627 -4.24356,-12.84 l -1.16178,0 -0.55466,0 z m -7.12,17.2 c -9.64515,-11.02616 12.42759,-21.775096 4.4,-4.36 l -1.765,3.094999 -2.635,1.265001 z"
       id="path4142"
       inkscape:connector-curvature="0" /><path
       style="line-height:125%;font-family:Lobster Two;-inkscape-font-specification:Lobster Two Italic"
       d="m 168.43147,40.472729 c -0.52097,6.257419 -4.91123,15.64983 -3.07822,20 7.19839,0.647096 2.57912,-22.218188 11.79822,-14.96 -8.16093,11.66137 7.47567,21.548577 7.28,7.8 -7.92742,11.302131 -0.56465,-22.762908 -11.96,-12.84 -1.34667,0 -2.69333,0 -4.04,0 z"
       id="path4144"
       inkscape:connector-curvature="0" /><path
       style="line-height:125%;font-family:Lobster Two;-inkscape-font-specification:Lobster Two Italic"
       d="m 185.50335,41.872729 c 1.96821,2.235306 -5.42114,25.999819 5.28,15.56 -5.1114,-1.479863 -1.03559,-16.233249 3.38784,-16.699219 -2.91317,-1.568467 -3.89836,-12.214998 -7.02784,-0.260781 -1.47896,-0.566971 -1.52251,0.316118 -1.64,1.4 z"
       id="path4146"
       inkscape:connector-curvature="0" /><path
       style="line-height:125%;font-family:Lobster Two;-inkscape-font-specification:Lobster Two Italic"
       d="m 205.22835,40.472729 c -0.52097,6.257419 -4.91123,15.64983 -3.07822,20 7.19839,0.647096 2.57912,-22.218188 11.79822,-14.96 -8.16093,11.66137 7.47567,21.548577 7.28,7.8 -7.92742,11.302132 -0.56465,-22.762906 -11.96,-12.84 -1.34667,0 -2.69333,0 -4.04,0 z"
       id="path4148"
       inkscape:connector-curvature="0" /><path
       style="line-height:125%;font-family:Lobster Two;-inkscape-font-specification:Lobster Two Italic"
       d="m 231.34022,40.272729 c -20.73441,1.787311 -3.80125,36.655499 4.13102,10.789295 2.33054,-5.261869 13.23515,-7.839333 0.38898,-4.469295 0.19852,-2.729999 -1.07133,-6.627467 -4.52,-6.32 z m -2.72,17.4 c -10.53693,-5.451917 6.79308,-23.135119 5.2,-9 -0.50617,3.151619 -1.1818,8.388597 -5.2,9 z"
       id="path4150"
       inkscape:connector-curvature="0" /><path
       style="line-height:125%;font-family:Lobster Two;-inkscape-font-specification:Lobster Two Italic"
       d="m 239.0971,41.872729 c 2.85351,2.872541 -7.22809,23.483428 5.76,17.344998 6.36978,-9.757792 2.71695,-3.537032 -3.01,-2.124998 -1.68514,-5.849133 5.37459,-18.191781 4.80822,-16.62 -0.46675,-3.609038 -4.08443,-10.470031 -5.95822,0 -1.48276,-0.691445 -1.45798,0.456003 -1.6,1.4 z"
       id="path4152"
       inkscape:connector-curvature="0" /><path
       style="line-height:125%;font-family:Lobster Two;-inkscape-font-specification:Lobster Two Italic"
       d="m 261.51022,44.392729 c -11.6777,-17.294838 -22.3759,27.288973 -2.68063,13.788748 2.93992,-0.157313 -16.19415,-2.918751 -3.14125,-6.611249 3.08184,-0.938567 5.97474,-3.723906 5.82188,-7.177499 z m -3.92,-2.16 c 5.67305,7.818094 -13.35658,11.667637 -2.06625,0.776876 l 2.06625,-0.776876 z"
       id="path4154"
       inkscape:connector-curvature="0" /><path
       style="line-height:125%;font-family:Lobster Two;-inkscape-font-specification:Lobster Two Italic"
       d="m 285.05085,40.472729 c -8.33934,-6.749614 -23.27022,23.229379 -5.265,19.089999 1.13301,-1.131616 14.65811,2.990235 11.225,-6.249999 -10.96363,12.629855 1.49902,-12.94627 -4.24356,-12.84 l -1.16178,0 -0.55466,0 z m -7.12,17.2 c -9.64516,-11.026162 12.42759,-21.775096 4.4,-4.36 l -1.765,3.094999 -2.635,1.265001 z"
       id="path4156"
       inkscape:connector-curvature="0" /><path
       style="line-height:125%;font-family:Lobster Two;-inkscape-font-specification:Lobster Two Italic"
       d="m 290.98585,53.312729 c 2.06008,24.283229 29.37031,-18.332321 6.4,-11.36 5.04433,-9.079589 -2.82986,-13.219585 -3.50515,-2.105036 -0.96495,4.488345 -1.9299,8.976691 -2.89485,13.465036 z m 11.84,-5.96 c -3.35371,21.839015 -13.79324,0.994429 -2.88,-4.88 2.32946,-0.104705 3.14683,3.23774 2.88,4.88 z"
       id="path4158"
       inkscape:connector-curvature="0" /><path
       style="line-height:125%;font-family:Lobster Two;-inkscape-font-specification:Lobster Two Italic"
       d="m 317.8246,40.272729 c -20.73441,1.787311 -3.80126,36.655498 4.13102,10.789295 2.33054,-5.26187 13.23515,-7.839335 0.38898,-4.469295 0.19852,-2.729998 -1.07134,-6.627463 -4.52,-6.32 z m -2.72,17.4 c -10.53693,-5.45192 6.79308,-23.135119 5.2,-9 -0.50617,3.15162 -1.18181,8.388591 -5.2,9 z"
       id="path4160"
       inkscape:connector-curvature="0" /><path
       style="line-height:125%;font-family:Lobster Two;-inkscape-font-specification:Lobster Two Italic"
       d="m 336.70147,40.472729 c 0.79998,6.12862 -7.90861,25.168474 -7.91223,11.328213 4.33179,-7.001597 -0.51333,-17.821302 -2.8116,-5.645421 -5.42177,10.705542 3.55184,16.749199 9.03383,13.657207 7.22759,4.711395 12.34017,-14.454757 3.85,-2.139999 -4.93643,-3.479954 7.41291,-19.322917 -2.16,-17.2 z"
       id="path4162"
       inkscape:connector-curvature="0" /><path
       style="line-height:125%;font-family:Lobster Two;-inkscape-font-specification:Lobster Two Italic"
       d="m 343.70647,41.872729 c 1.96821,2.235306 -5.42114,25.999819 5.28,15.56 -5.1114,-1.479863 -1.03559,-16.233249 3.38784,-16.699219 -2.91317,-1.568467 -3.89836,-12.214998 -7.02784,-0.260781 -1.47896,-0.566971 -1.52251,0.316118 -1.64,1.4 z"
       id="path4164"
       inkscape:connector-curvature="0" /><path
       style="line-height:125%;font-family:Lobster Two;-inkscape-font-specification:Lobster Two Italic"
       d="m 365.07147,33.032729 c -1.21359,8.77836 -5.37603,17.547183 -3.96,26.359999 7.64446,5.040551 13.47213,-12.897716 3.485,-2.274999 0.24511,-8.276601 3.25455,-16.424268 4.635,-24.645 -1.38667,0.186667 -2.77333,0.373333 -4.16,0.56 z"
       id="path4166"
       inkscape:connector-curvature="0" /><path
       style="line-height:125%;font-family:Lobster Two;-inkscape-font-specification:Lobster Two Italic"
       d="m 379.54335,40.272729 c -20.73441,1.787311 -3.80126,36.655498 4.13102,10.789295 2.33054,-5.26187 13.23515,-7.839335 0.38898,-4.469295 0.19852,-2.729998 -1.07134,-6.627463 -4.52,-6.32 z m -2.72,17.4 c -10.53693,-5.45192 6.79308,-23.135119 5.2,-9 -0.50617,3.15162 -1.18181,8.388591 -5.2,9 z"
       id="path4168"
       inkscape:connector-curvature="0" /><path
       style="line-height:125%;font-family:Lobster Two;-inkscape-font-specification:Lobster Two Italic"
       d="m 388.90022,40.472729 c -0.52097,6.257419 -4.91123,15.64983 -3.07822,20 7.89613,0.195795 0.98443,-17.882611 10.76822,-16.22 8.781,-5.451701 -6.81473,-0.02172 -4.81178,-3.78 -0.95941,0 -1.91881,0 -2.87822,0 z"
       id="path4170"
       inkscape:connector-curvature="0" /><path
       style="line-height:125%;font-family:Lobster Two;-inkscape-font-specification:Lobster Two Italic"
       d="m 413.69772,44.392729 c -19.76992,-15.852196 -13.50612,35.640892 0.79822,8.92 -10.41944,10.412182 -14.50092,-2.926685 -1.48884,-5.857502 l 0.69062,-3.062498 z m -3.92,-2.16 c 5.67305,7.818094 -13.35658,11.667637 -2.06625,0.776876 l 2.06625,-0.776876 z"
       id="path4172"
       inkscape:connector-curvature="0" /><path
       style="line-height:125%;font-family:Lobster Two;-inkscape-font-specification:Lobster Two Italic"
       d="m 437.10522,55.552729 c 5.79923,-11.096411 -1.58483,-17.936784 -8.705,-14.304999 -7.36293,0.158794 -12.34442,-3.849614 -13.30254,8.317167 -4.40064,7.06385 0.7724,17.155658 2.90467,5.227875 0.35796,-12.570597 11.01978,-12.665635 5.3319,0.274675 -2.36306,11.999022 6.59286,0.793321 5.32524,-5.954633 10.92644,-19.751363 -1.18369,22.445411 11.12573,8.279915 -1.16538,0.82866 -3.26575,-0.165071 -2.68,-1.84 z"
       id="path4174"
       inkscape:connector-curvature="0" /><path
       style="line-height:125%;font-family:Lobster Two;-inkscape-font-specification:Lobster Two Italic"
       d="m 454.1821,34.712729 c 7.20474,10.734207 6.19858,-10.413125 0,0 z m -0.32,5.76 c -2.36468,6.377967 -5.90334,27.4445 5.50312,16.814372 5.74105,-10.061665 -8.9465,7.168785 -3.65147,-6.622053 -0.27572,-3.815201 5.66491,-12.231841 -1.85165,-10.192319 z"
       id="path4176"
       inkscape:connector-curvature="0" /><path
       style="line-height:125%;font-family:Lobster Two;-inkscape-font-specification:Lobster Two Italic"
       d="m 462.81397,38.992729 c -2.22667,10.493333 -4.45333,20.986667 -6.68,31.48 9.23362,-1.691248 2.05936,-15.877434 14.365,-11.184376 11.86042,-9.305787 -0.005,-20.629216 -3.645,-20.295624 -1.34667,0 -2.69333,0 -4.04,0 z m 5.96,3.88 c 10.1467,11.336956 -12.05832,21.828575 -3.52447,3.657082 -0.005,-1.926515 1.56688,-3.577195 3.52447,-3.657082 z"
       id="path4178"
       inkscape:connector-curvature="0" /><path
       style="line-height:125%;font-family:Lobster Two;-inkscape-font-specification:Lobster Two Italic"
       d="m 490.4471,53.312729 c -5.10616,4.609574 -2.65277,-27.165368 -10.005,-7.375 -14.03837,17.105936 7.34675,17.741755 10.005,7.375 z m -6.92,0.52 c -11.13541,17.427859 1.77629,-26.7935 0,0 z"
       id="path4180"
       inkscape:connector-curvature="0" /><path
       style="line-height:125%;font-family:Lobster Two;-inkscape-font-specification:Lobster Two Italic"
       d="m 502.63897,40.472729 c 0.79998,6.12862 -7.90861,25.168474 -7.91223,11.328213 4.33179,-7.001597 -0.51333,-17.821302 -2.8116,-5.645421 -5.42177,10.705542 3.55184,16.749199 9.03383,13.657207 7.22759,4.711395 12.34017,-14.454757 3.85,-2.139999 -4.93643,-3.479954 7.41291,-19.322917 -2.16,-17.2 z"
       id="path4182"
       inkscape:connector-curvature="0" /><path
       style="line-height:125%;font-family:Lobster Two;-inkscape-font-specification:Lobster Two Italic"
       d="m 531.32397,55.552729 c 5.79923,-11.096411 -1.58483,-17.936784 -8.705,-14.304999 -7.36293,0.158794 -12.34442,-3.849614 -13.30254,8.317167 -4.40064,7.06385 0.7724,17.155658 2.90467,5.227875 0.35796,-12.570597 11.01978,-12.665635 5.3319,0.274675 -2.36306,11.999022 6.59286,0.793321 5.32524,-5.954633 10.92644,-19.751363 -1.18369,22.445411 11.12573,8.279915 -1.16538,0.82866 -3.26575,-0.165071 -2.68,-1.84 z"
       id="path4184"
       inkscape:connector-curvature="0" /></g></svg>