<?xml version="1.0" encoding="iso-8859-1"?>
<!-- Generator: Adobe Illustrator 16.0.0, SVG Export Plug-In . SVG Version: 6.00 Build 0)  -->
<!DOCTYPE svg PUBLIC "-//W3C//DTD SVG 1.1//EN" "http://www.w3.org/Graphics/SVG/1.1/DTD/svg11.dtd">
<svg version="1.1" id="Capa_1" xmlns="http://www.w3.org/2000/svg" xmlns:xlink="http://www.w3.org/1999/xlink" x="0px" y="0px"
	 width="734.135px" height="734.135px" viewBox="0 0 734.135 734.135" style="enable-background:new 0 0 734.135 734.135;"
	 xml:space="preserve">
<g>
	<g>
		<path d="M647.626,313.628H555.57v-120.3c0-55.956-17.576-102.24-53.192-138.754C466.752,18.06,421.889,0,367.294,0
			c-55.047,0-100.375,18.06-136,54.574c-35.617,36.514-53.657,82.799-53.657,138.754v29.211c0,14.31,12.03,25.461,25.442,25.461
			c14.339,0,25.905-11.151,25.905-25.461v-29.211c0-41.547,12.948-75.792,38.399-102.24c25.896-26.744,59.212-40.166,99.911-40.166
			c40.255,0,72.979,13.52,98.54,40.166c25.323,26.547,38.389,60.693,38.389,102.24v120.3H86.509
			c-14.339,0-25.441,11.152-25.441,25.461v369.584c0,14.408,11.103,25.461,25.441,25.461h561.117
			c13.421,0,25.441-11.053,25.441-25.461V339.09C673.067,324.78,661.047,313.628,647.626,313.628z M621.721,682.818H112.415V364.551
			h509.306V682.818z"/>
		<path d="M341.389,524.623v106.385c0,14.309,11.566,26.35,25.905,26.35c14.35,0,25.452-12.041,25.452-26.35V524.623
			c21.74-9.771,37.008-29.607,37.008-51.812c0-15.295-6.701-28.52-19.432-39.869c-12.711-11.25-26.833-17.072-43.028-17.072
			c-16.648,0-31.333,5.723-44.399,17.072c-12.839,11.25-19.432,24.574-19.432,39.869
			C303.463,494.523,319.648,514.852,341.389,524.623z"/>
	</g>
</g>
<g>
</g>
<g>
</g>
<g>
</g>
<g>
</g>
<g>
</g>
<g>
</g>
<g>
</g>
<g>
</g>
<g>
</g>
<g>
</g>
<g>
</g>
<g>
</g>
<g>
</g>
<g>
</g>
<g>
</g>
</svg>
